# 3ds Max Wavefront OBJ Exporter v0.97b - (c)2007 guruware
# File Created: 10.10.2018 23:32:05

#
# object Box001
#

v  -16.7655 -0.2648 20.6309
v  -16.7655 -0.2648 -15.7699
v  19.6353 -0.2648 -15.7699
v  19.6353 -0.2648 20.6309
v  -16.7655 -0.0648 20.6309
v  19.6353 -0.0648 20.6309
v  19.6353 -0.0648 -15.7699
v  -16.7655 -0.0648 -15.7699
v  18.0932 0.0000 20.5755
v  18.0932 0.0000 16.4694
v  19.7139 0.0000 16.4694
v  19.7139 0.0000 20.5755
v  18.0932 11.0681 20.5755
v  19.7139 11.0681 20.5755
v  19.7139 11.0681 16.4694
v  18.0932 11.0681 16.4694
v  18.0932 0.0000 -11.7887
v  18.0932 0.0000 -15.8948
v  19.7139 0.0000 -15.8948
v  19.7139 0.0000 -11.7887
v  18.0932 11.0681 -11.7887
v  19.7139 11.0681 -11.7887
v  19.7139 11.0681 -15.8948
v  18.0932 11.0681 -15.8948
v  -16.9051 0.0000 -11.7887
v  -16.9051 0.0000 -15.8948
v  -15.2844 0.0000 -15.8948
v  -15.2844 0.0000 -11.7887
v  -16.9051 11.0681 -11.7887
v  -15.2844 11.0681 -11.7887
v  -15.2844 11.0681 -15.8948
v  -16.9051 11.0681 -15.8948
v  -16.6169 0.0000 20.6812
v  -16.6169 0.0000 16.5750
v  -14.9962 0.0000 16.5750
v  -14.9962 0.0000 20.6812
v  -16.6169 11.0681 20.6812
v  -14.9962 11.0681 20.6812
v  -14.9962 11.0681 16.5750
v  -16.6169 11.0681 16.5750
# 40 vertices

vn 0.0000 -1.0000 -0.0000
vn 0.0000 1.0000 -0.0000
vn 0.0000 0.0000 1.0000
vn 1.0000 0.0000 -0.0000
vn 0.0000 0.0000 -1.0000
vn -1.0000 0.0000 -0.0000
# 6 vertex normals

vt 1.0000 0.0000 0.0000
vt 1.0000 1.0000 0.0000
vt 0.0000 1.0000 0.0000
vt 0.0000 0.0000 0.0000
# 4 texture coords

o Box001
g Box001
f 1/1/1 2/2/1 3/3/1 
f 3/3/1 4/4/1 1/1/1 
f 5/4/2 6/1/2 7/2/2 
f 7/2/2 8/3/2 5/4/2 
f 1/4/3 4/1/3 6/2/3 
f 6/2/3 5/3/3 1/4/3 
f 4/4/4 3/1/4 7/2/4 
f 7/2/4 6/3/4 4/4/4 
f 3/4/5 2/1/5 8/2/5 
f 8/2/5 7/3/5 3/4/5 
f 2/4/6 1/1/6 5/2/6 
f 5/2/6 8/3/6 2/4/6 
f 9/1/1 10/2/1 11/3/1 
f 11/3/1 12/4/1 9/1/1 
f 13/4/2 14/1/2 15/2/2 
f 15/2/2 16/3/2 13/4/2 
f 9/4/3 12/1/3 14/2/3 
f 14/2/3 13/3/3 9/4/3 
f 12/4/4 11/1/4 15/2/4 
f 15/2/4 14/3/4 12/4/4 
f 11/4/5 10/1/5 16/2/5 
f 16/2/5 15/3/5 11/4/5 
f 10/4/6 9/1/6 13/2/6 
f 13/2/6 16/3/6 10/4/6 
f 17/1/1 18/2/1 19/3/1 
f 19/3/1 20/4/1 17/1/1 
f 21/4/2 22/1/2 23/2/2 
f 23/2/2 24/3/2 21/4/2 
f 17/4/3 20/1/3 22/2/3 
f 22/2/3 21/3/3 17/4/3 
f 20/4/4 19/1/4 23/2/4 
f 23/2/4 22/3/4 20/4/4 
f 19/4/5 18/1/5 24/2/5 
f 24/2/5 23/3/5 19/4/5 
f 18/4/6 17/1/6 21/2/6 
f 21/2/6 24/3/6 18/4/6 
f 25/1/1 26/2/1 27/3/1 
f 27/3/1 28/4/1 25/1/1 
f 29/4/2 30/1/2 31/2/2 
f 31/2/2 32/3/2 29/4/2 
f 25/4/3 28/1/3 30/2/3 
f 30/2/3 29/3/3 25/4/3 
f 28/4/4 27/1/4 31/2/4 
f 31/2/4 30/3/4 28/4/4 
f 27/4/5 26/1/5 32/2/5 
f 32/2/5 31/3/5 27/4/5 
f 26/4/6 25/1/6 29/2/6 
f 29/2/6 32/3/6 26/4/6 
f 33/1/1 34/2/1 35/3/1 
f 35/3/1 36/4/1 33/1/1 
f 37/4/2 38/1/2 39/2/2 
f 39/2/2 40/3/2 37/4/2 
f 33/4/3 36/1/3 38/2/3 
f 38/2/3 37/3/3 33/4/3 
f 36/4/4 35/1/4 39/2/4 
f 39/2/4 38/3/4 36/4/4 
f 35/4/5 34/1/5 40/2/5 
f 40/2/5 39/3/5 35/4/5 
f 34/4/6 33/1/6 37/2/6 
f 37/2/6 40/3/6 34/4/6 
# 60 faces

