# Blender v2.90.0 OBJ File: ''
# www.blender.org
mtllib Map.mtl
o Box001
v -16.765499 -0.264803 20.630899
v -16.765499 -0.264797 -15.769900
v 19.635300 -0.264797 -15.769900
v 19.635300 -0.264803 20.630899
v -16.765499 -0.064803 20.630899
v 19.635300 -0.064803 20.630899
v 19.635300 -0.064797 -15.769900
v -16.765499 -0.064797 -15.769900
v 18.093201 -0.000003 20.575500
v 18.093201 -0.000003 16.469400
v 19.713900 -0.000003 16.469400
v 19.713900 -0.000003 20.575500
v 18.093201 11.068096 20.575502
v 19.713900 11.068096 20.575502
v 19.713900 11.068097 16.469402
v 18.093201 11.068097 16.469402
v 18.093201 0.000002 -11.788700
v 18.093201 0.000003 -15.894800
v 19.713900 0.000003 -15.894800
v 19.713900 0.000002 -11.788700
v 18.093201 11.068102 -11.788698
v 19.713900 11.068102 -11.788698
v 19.713900 11.068103 -15.894798
v 18.093201 11.068103 -15.894798
v -16.905100 0.000002 -11.788700
v -16.905100 0.000003 -15.894800
v -15.284400 0.000003 -15.894800
v -15.284400 0.000002 -11.788700
v -16.905100 11.068102 -11.788698
v -15.284400 11.068102 -11.788698
v -15.284400 11.068103 -15.894798
v -16.905100 11.068103 -15.894798
v -16.616899 -0.000003 20.681200
v -16.616899 -0.000003 16.575001
v -14.996200 -0.000003 16.575001
v -14.996200 -0.000003 20.681200
v -16.616899 11.068096 20.681202
v -14.996200 11.068096 20.681202
v -14.996200 11.068097 16.575003
v -16.616899 11.068097 16.575003
vt 0.737360 0.000000
vt 0.737360 0.500000
vt 0.000000 0.500000
vt 0.000000 0.000000
vt 0.737360 0.500000
vt 0.737360 1.000000
vt 0.000000 1.000000
vt 0.012844 0.897256
vt 0.012844 0.132403
vt 0.994962 0.132403
vt 0.985580 0.000000
vt 0.985580 0.500000
vt 0.981528 0.500000
vt 0.981528 0.000000
vt 0.977477 0.500000
vt 0.977477 0.000000
vt 0.981528 0.000000
vt 0.977477 0.500000
vt 0.973426 0.500000
vt 0.973426 0.000000
vt 0.969374 0.500000
vt 0.969374 0.000000
vt 0.973426 0.000000
vt 0.934340 0.608124
vt 0.934340 0.664525
vt 0.901510 0.664525
vt 0.901510 0.608124
vt 0.934340 0.608124
vt 0.967170 0.608124
vt 0.967170 0.664525
vt 0.934340 0.664525
vt 0.903712 0.456093
vt 0.936542 0.456093
vt 0.936542 0.608124
vt 0.903712 0.608124
vt 0.737360 0.304062
vt 0.820536 0.304062
vt 0.820536 0.456093
vt 0.737360 0.456093
vt 0.936542 0.456093
vt 0.969372 0.456093
vt 0.969372 0.608124
vt 0.936542 0.608124
vt 0.820536 0.608124
vt 0.737360 0.608124
vt 0.737360 0.456093
vt 0.820536 0.456093
vt 1.000000 0.608124
vt 1.000000 0.664525
vt 0.967170 0.664525
vt 0.967170 0.608124
vt 0.803020 0.608124
vt 0.835850 0.608124
vt 0.835850 0.664525
vt 0.803020 0.664525
vt 0.903712 0.304062
vt 0.936542 0.304062
vt 0.936542 0.456093
vt 0.903712 0.456093
vt 0.820538 0.152031
vt 0.903714 0.152031
vt 0.903714 0.304062
vt 0.820538 0.304062
vt 0.936542 0.304062
vt 0.969372 0.304062
vt 0.969372 0.456093
vt 0.936542 0.456093
vt 0.903712 0.608124
vt 0.820536 0.608124
vt 0.820536 0.456093
vt 0.903712 0.456093
vt 0.868680 0.608124
vt 0.868680 0.664525
vt 0.835850 0.664525
vt 0.835850 0.608124
vt 0.901510 0.664525
vt 0.868680 0.664525
vt 0.868680 0.608124
vt 0.901510 0.608124
vt 0.936544 0.152031
vt 0.903714 0.152031
vt 0.903714 0.000000
vt 0.936544 0.000000
vt 0.820538 0.000000
vt 0.903714 0.000000
vt 0.903714 0.152031
vt 0.820538 0.152031
vt 0.936544 0.000000
vt 0.969374 0.000000
vt 0.969374 0.152031
vt 0.936544 0.152031
vt 0.903712 0.456093
vt 0.820536 0.456093
vt 0.820536 0.304062
vt 0.903712 0.304062
vt 0.803020 0.608124
vt 0.803020 0.664527
vt 0.770190 0.664527
vt 0.770190 0.608124
vt 0.737360 0.608124
vt 0.770190 0.608124
vt 0.770190 0.664527
vt 0.737360 0.664527
vt 0.936544 0.304062
vt 0.903714 0.304062
vt 0.903714 0.152031
vt 0.936544 0.152031
vt 0.737360 0.000000
vt 0.820538 0.000000
vt 0.820538 0.152031
vt 0.737360 0.152031
vt 0.936544 0.152031
vt 0.969374 0.152031
vt 0.969374 0.304062
vt 0.936544 0.304062
vt 0.820538 0.304062
vt 0.737360 0.304062
vt 0.737360 0.152031
vt 0.820538 0.152031
vn 0.0000 -1.0000 -0.0000
vn 0.0000 1.0000 0.0000
vn 0.0000 0.0000 1.0000
vn 1.0000 0.0000 0.0000
vn 0.0000 0.0000 -1.0000
vn -1.0000 0.0000 0.0000
usemtl Default_OBJ
s 1
f 1/1/1 2/2/1 3/3/1
f 3/3/1 4/4/1 1/1/1
f 5/5/2 6/6/2 7/7/2
f 7/8/2 8/9/2 5/10/2
f 1/11/3 4/12/3 6/13/3
f 6/13/3 5/14/3 1/11/3
f 4/15/4 3/16/4 7/17/4
f 7/17/4 6/13/4 4/15/4
f 3/16/5 2/18/5 8/19/5
f 8/19/5 7/20/5 3/16/5
f 2/21/6 1/22/6 5/23/6
f 5/23/6 8/19/6 2/21/6
f 9/24/1 10/25/1 11/26/1
f 11/26/1 12/27/1 9/24/1
f 13/28/2 14/29/2 15/30/2
f 15/30/2 16/31/2 13/28/2
f 9/32/3 12/33/3 14/34/3
f 14/34/3 13/35/3 9/32/3
f 12/36/4 11/37/4 15/38/4
f 15/38/4 14/39/4 12/36/4
f 11/40/5 10/41/5 16/42/5
f 16/42/5 15/43/5 11/40/5
f 10/44/6 9/45/6 13/46/6
f 13/46/6 16/47/6 10/44/6
f 17/48/1 18/49/1 19/50/1
f 19/50/1 20/51/1 17/48/1
f 21/52/2 22/53/2 23/54/2
f 23/54/2 24/55/2 21/52/2
f 17/56/3 20/57/3 22/58/3
f 22/58/3 21/59/3 17/56/3
f 20/60/4 19/61/4 23/62/4
f 23/62/4 22/63/4 20/60/4
f 19/64/5 18/65/5 24/66/5
f 24/66/5 23/67/5 19/64/5
f 18/68/6 17/69/6 21/70/6
f 21/70/6 24/71/6 18/68/6
f 25/72/1 26/73/1 27/74/1
f 27/74/1 28/75/1 25/72/1
f 29/76/2 30/77/2 31/78/2
f 31/78/2 32/79/2 29/76/2
f 25/80/3 28/81/3 30/82/3
f 30/82/3 29/83/3 25/80/3
f 28/84/4 27/85/4 31/86/4
f 31/86/4 30/87/4 28/84/4
f 27/88/5 26/89/5 32/90/5
f 32/90/5 31/91/5 27/88/5
f 26/92/6 25/93/6 29/94/6
f 29/94/6 32/95/6 26/92/6
f 33/96/1 34/97/1 35/98/1
f 35/98/1 36/99/1 33/96/1
f 37/100/2 38/101/2 39/102/2
f 39/102/2 40/103/2 37/100/2
f 33/104/3 36/105/3 38/106/3
f 38/106/3 37/107/3 33/104/3
f 36/108/4 35/109/4 39/110/4
f 39/110/4 38/111/4 36/108/4
f 35/112/5 34/113/5 40/114/5
f 40/114/5 39/115/5 35/112/5
f 34/116/6 33/117/6 37/118/6
f 37/118/6 40/119/6 34/116/6
